<svg width="150" height="31" viewBox="0 0 150 31" fill="none" xmlns="http://www.w3.org/2000/svg">
<path d="M61.8514 16.2325C62.2354 16.141 62.6195 16.3605 62.7475 16.7263C63.0767 17.6408 63.4242 18.5186 63.7717 19.4148C64.0095 19.9818 63.6437 20.1098 63.2779 20.311C61.7599 21.1706 61.2661 22.3228 61.7416 23.8408C62.0342 24.8101 62.7109 25.3405 63.6437 25.5051C66.7712 26.1087 69.3865 24.0603 69.4962 20.8779C69.5511 18.4272 69.4962 15.9764 69.4597 13.5257C69.4414 12.6478 69.039 11.9894 68.1611 11.7333C66.0579 11.1481 64.0278 11.1115 62.272 12.7758C61.8148 13.2148 61.0832 13.5623 60.4614 13.6171C59.2543 13.7269 58.0472 13.672 56.7487 13.6537C56.3097 13.6537 55.9988 13.2331 56.1268 12.8124C57.2608 9.28258 59.6018 7.12446 63.3145 6.72209C65.8567 6.42947 68.4172 6.52091 70.8862 7.32564C73.337 8.11207 75.0013 9.72153 75.1293 12.3552C75.2756 15.6289 75.3122 18.9027 75.0927 22.1765C74.7635 26.9134 71.7641 29.1447 67.5759 29.986C65.1251 30.4615 62.6561 30.5895 60.2419 29.6751C57.7546 28.7423 56.1451 26.5842 56.0171 23.9505C55.7428 19.6343 57.6083 17.1469 61.8514 16.2325Z" fill="#00989E"/>
<path d="M62.7292 13.7817C64.7045 14.4219 66.4602 14.9888 68.216 15.6107C68.5086 15.7204 68.6366 16.0313 68.5086 16.3056C67.8136 17.8419 66.4237 20.6036 65.8201 21.6644C65.7104 21.8473 65.436 21.829 65.3629 21.6278C64.4301 19.2136 63.4608 16.7629 62.4183 14.1109C62.3452 13.9098 62.5281 13.7269 62.7292 13.7817Z" fill="#E26727"/>
<path d="M95.4669 30.242C93.2905 30.242 91.5165 28.468 91.5165 26.2916V16.141C91.5165 14.3853 90.8398 13.3245 89.4864 12.9404C87.1819 12.3186 84.9323 14.1475 84.9323 16.5251V29.8579C84.9323 30.0408 84.7677 30.2054 84.5848 30.2054H79.0981C78.3299 30.2054 77.7081 29.5836 77.7081 28.8155V17.3115C77.5984 10.2519 81.0916 6.72209 88.2061 6.72209C95.3206 6.72209 98.8687 10.2519 98.8687 17.3115V29.0715C98.8687 29.6933 98.3749 30.2237 97.7165 30.2237H95.4669V30.242Z" fill="#00989E"/>
<path d="M122.864 22.085C123.267 22.085 123.541 22.4691 123.413 22.8349C121.73 27.7913 118.109 30.2969 112.531 30.3335C109.038 30.3335 106.349 29.2727 104.429 27.1329C102.508 24.8284 101.521 21.9387 101.484 18.4455C101.374 14.9522 102.325 12.1174 104.337 9.92271C106.203 7.728 108.891 6.63065 112.439 6.63065C115.987 6.52091 118.767 7.59998 120.797 9.83126C121.986 11.0566 122.809 12.5198 123.248 14.2207L123.267 14.2755C123.358 14.623 123.084 14.9888 122.7 14.9888H116.646C116.408 14.9888 116.207 14.8425 116.115 14.6413C115.548 13.3062 114.378 12.6295 112.622 12.6295C110.153 12.6295 108.891 14.5682 108.818 18.4638C108.818 22.2679 110.135 24.2614 112.75 24.4626H112.842C114.122 24.4078 115.073 24.042 115.75 23.3836C116.426 22.5423 117.359 22.1033 118.53 22.1033L122.864 22.085Z" fill="#00989E"/>
<path d="M42.6294 6.68552C44.4217 6.44776 46.1775 6.59407 47.915 7.12446C51.9386 8.33155 54.0236 11.6053 54.1333 16.9823V28.9252C54.1333 29.6385 53.5481 30.2237 52.8348 30.2237H48.0796C47.3114 30.2237 46.6896 29.6019 46.6896 28.8337V18.0248C46.6896 14.7511 45.2447 13.105 42.3733 13.105C39.5019 13.105 38.0754 14.7511 38.1302 18.0248V28.6509C38.1302 29.5105 37.4353 30.1872 36.594 30.1872H32.1497C31.3632 30.1872 30.7048 29.547 30.7048 28.7423V1.25362C30.7048 0.631787 31.2352 0.1014 31.857 0.1014H34.509C36.5208 0.1014 38.1485 1.72914 38.1485 3.74095V8.34983C38.1485 8.51444 38.3314 8.60588 38.4595 8.49615C39.5568 7.59998 40.9651 6.99643 42.6294 6.68552Z" fill="#00989E"/>
<path d="M141.007 13.1599C141.629 12.6844 140.221 11.9162 139.891 11.7333C137.934 10.7091 135.502 11.2761 133.746 12.4649C129.869 15.1168 130.107 22.3594 134.606 24.2432C137.971 25.6697 142.415 24.2066 143.641 20.5853C143.75 20.2927 143.842 20.0001 143.933 19.6891C143.981 19.5392 144.071 19.413 144.191 19.327C144.356 19.2081 144.535 19.199 144.61 19.1953C145.526 19.1588 145.985 19.1405 147 19.1679C147.339 19.177 149.084 19.2081 149.605 19.4057C149.665 19.4276 149.811 19.4861 149.905 19.627C149.905 19.627 150.027 19.7714 149.994 19.9854C149.799 21.2565 149.217 23.8335 147.209 26.2422C145.709 28.0418 144.067 28.9618 143.5 29.2599C142.119 29.9841 140.897 30.2786 140.255 30.4048C138.812 30.6864 137.695 30.6243 136.855 30.5731C135.829 30.509 134.225 30.3957 132.311 29.6184C130.101 28.7204 128.731 27.4456 128.387 27.1164C127.83 26.5823 126.613 25.4027 125.79 23.4403C125.223 22.0869 124.949 20.5871 124.949 18.9045C124.949 17.2219 125.187 15.6125 125.662 14.2774C126.12 12.9423 126.833 11.7717 127.766 10.8024C128.698 9.83309 129.686 9.02836 130.729 8.40653C132.172 7.54511 133.443 7.18847 133.966 7.05313C134.884 6.81537 135.615 6.74038 136.131 6.68917C137.501 6.55383 138.567 6.62516 139.003 6.66174C139.807 6.72941 140.916 6.83 142.287 7.30735C143.765 7.82128 144.835 8.49981 145.36 8.9168C146.256 9.63008 147.097 10.4348 147.829 11.3127C148.012 11.5504 148.213 11.7699 148.396 12.026C149.219 13.0867 148.89 14.623 147.701 15.2632L136.673 21.1523C136.362 21.3169 134.46 21.9936 133.435 20.6585C132.32 19.2319 132.85 17.8785 133.874 17.2933C133.783 17.275 141.007 13.1599 141.007 13.1599Z" fill="#00989E"/>
<path d="M24.1207 0.00995388C21.8528 -0.00833533 20.3897 -0.00833516 20.4446 2.8082V14.3304C20.4446 14.4767 20.4994 14.623 20.6458 14.7511L26.3703 19.7074C26.8641 20.1464 27.8334 19.872 27.8334 19.2868V2.71676C27.8151 -0.392409 26.4252 0.0282431 24.1207 0.00995388Z" fill="#E26727"/>
<path d="M15.0493 12.0077L4.69757 0.759812C4.16718 0.174557 3.52706 0.119689 2.79549 0.119689C1.29577 0.137978 -0.167363 -0.428988 0.0155289 3.02767L0.143553 5.3504C0.161843 5.6979 0.308156 6.06368 0.564205 6.33802L16.2563 22.9812L22.4381 29.7482C22.6393 30.0043 22.9319 30.1506 23.2611 30.1506C24.0293 30.1689 25.0535 30.1506 25.6204 30.1506C27.1201 30.1323 27.8883 30.0957 27.8883 28.3399L27.742 25.9806C27.7237 25.6331 27.5774 25.2674 27.3213 25.0113L15.0493 12.0077Z" fill="#00989E"/>
<path d="M0.45447 28.6509C0.45447 29.8397 1.13117 30.4249 4.24034 30.2969C7.27635 30.1689 7.91647 29.8579 7.91647 28.7606V17.3481C7.91647 17.0738 7.78844 16.8177 7.56897 16.6348L3.06983 12.7758C2.17366 12.0077 0.472759 12.4832 0.472759 13.4891V28.6509H0.45447Z" fill="#E26727"/>
</svg>
