<svg id="Group_2469" data-name="Group 2469" xmlns="http://www.w3.org/2000/svg" width="1343.602" height="663.909" viewBox="0 0 1343.602 663.909">
  <path id="Path_3097" data-name="Path 3097" d="M940.37,435.057c-23.56,0-40.73-17.153-40.73-63.592,0-61.468,30.016-165.1,85.758-165.1,27.9,0,42.9,22.888,42.9,62.19-.722,73.6-36.473,166.5-87.924,166.5M478.683,457.223c-17.136,0-34.307-10.714-34.307-52.157,0-71.476,42.165-198.7,97.211-198.7,24.3,0,37.161,18.589,37.161,59.319,0,66.464-43.593,191.541-100.065,191.541m588.192-313.034-20.025,71.476c-9.991-42.165-48.605-80.04-105.758-80.04-89.335,0-149.393,67.178-180.106,186.529-15,59.319-39.3,142.944-72.9,134.347-17.859-4.274-9.286-37.153-5-52.157l67.194-259.433H614.491l-20.016,71.476c-11.419-42.165-43.593-80.049-99.343-80.049-115.775,0-163.658,117.924-182.96,182.238-16.431,55.767-53.6,133.667-117.2,133.667-45.029,0-28.58-57.9-25-69.335L213.55,219.956H324.328l16.431-63.609H231.408L269.3,12,177.807,22.713C154.953,105.592,118.5,154.2,28.448,154.2L12,218.52H79.186L38.439,368.593c-6.44,24.315-10.73,51.46-10.73,68.613,0,72.9,54.323,102.206,114.364,102.206,119.351,0,159.367-126.5,159.367-126.5s0,126.5,122.214,126.5c100.048,0,138.662-102.206,138.662-102.206s-20.73,102.206,82.19,102.206c54.306,0,100.04-36.464,125.077-102.206,17.859,42.888,55.028,72.9,114.347,72.9,52.157,0,93.609-20.008,117.916-57.178,0,0-30.025,116.5-62.887,150.064-40.041,40.05-95.775,24.324-105.766,21.444,9.991-10.008,18.564-24.307,18.564-44.3,0-32.879-22.149-61.468-63.6-61.468-42.888,0-66.472,32.141-66.472,65.037,0,82.173,115.783,92.2,159.376,92.2,95.775,0,204.4-30.008,238.694-177.956l82.929-354.485H1066.875Z" transform="translate(-12 -12)" fill="#09232c"/>
  <path id="Path_3098" data-name="Path 3098" d="M238.438,55.408c-46.464,0-85.053,40.746-85.053,93.617,0,41.443,28.58,75.062,71.468,75.062,46.464,0,85.045-40.747,85.045-93.642-.688-41.452-29.294-75.036-71.46-75.036" transform="translate(1033.704 309.052)" fill="#09232c"/>
</svg>
